<?xml version="1.0" encoding="UTF-8"?>
<!DOCTYPE svg PUBLIC "-//W3C//DTD SVG 1.1//EN" "http://www.w3.org/Graphics/SVG/1.1/DTD/svg11.dtd">
<!-- Creator: CorelDRAW X6 -->
<svg xmlns="http://www.w3.org/2000/svg" xml:space="preserve" width="27.7778in" height="27.7778in" version="1.1" style="shape-rendering:geometricPrecision; text-rendering:geometricPrecision; image-rendering:optimizeQuality; fill-rule:evenodd; clip-rule:evenodd"
viewBox="0 0 27778 27778"
 xmlns:xlink="http://www.w3.org/1999/xlink">
 <defs>
  <style type="text/css">
   <![CDATA[
    .fil4 {fill:#1FAA59;fill-rule:nonzero}
    .fil2 {fill:#6E452E;fill-rule:nonzero}
    .fil3 {fill:#90C74A;fill-rule:nonzero}
    .fil0 {fill:#FEC64C;fill-rule:nonzero}
    .fil1 {fill:#FEFEFE;fill-rule:nonzero}
   ]]>
  </style>
 </defs>
 <g id="__x0023_Layer_x0020_1">
  <metadata id="CorelCorpID_0Corel-Layer"/>
  <g id="_301631552">
   <polygon class="fil0" points="27764,27806 14,27806 14,-28 27764,-28 "/>
  </g>
  <g id="_301631216">
   <g>
    <path class="fil1" d="M4992 9310l112 -234c101,-178 186,-195 341,-92l611 254c144,59 173,127 126,246l-139 238 -1051 -412zm235 -135l0 0 752 351 9 -63c18,-45 -17,-59 -55,-125l-573 -219c-51,-69 -66,-2 -123,1l-10 54z"/>
    <polygon class="fil1" points="5417,8393 5628,8022 5762,8140 5619,8371 5941,8508 5974,8296 6158,8374 6042,8593 6364,8745 6456,8491 6622,8609 6414,8969 "/>
    <polygon class="fil1" points="6829,8274 5883,7613 5937,7515 6730,8081 6894,7874 7009,7924 "/>
    <polygon class="fil1" points="6330,6932 6404,6842 7360,7534 7258,7707 "/>
    <path class="fil1" d="M7718 6753c170,86 89,209 3,313 -48,111 -179,173 -317,66l-495 -479c-126,-101 -127,-226 -41,-381 98,-88 229,-71 317,-11l181 121 -169 124 -99 -80c7,-51 -29,-30 -65,-50l-68 -14c20,63 32,131 75,124l451 479c43,36 117,80 128,12 55,2 54,-35 12,-71l-99 -162 87 -124 99 133z"/>
    <polygon class="fil1" points="7369,5854 7474,5721 8244,6552 8167,6685 "/>
    <path class="fil1" d="M8771 5797c101,198 101,311 -38,340 -133,131 -235,96 -298,-12l-461 -556c-58,-154 -20,-218 75,-348 145,-60 247,-52 304,65l418 512zm-499 -436l0 0c-71,-11 -89,-41 -138,29l9 24c-31,7 -5,19 -49,42l461 591c39,18 101,38 100,-26 11,32 35,-42 -4,-65l-379 -594z"/>
    <path class="fil1" d="M9522 5389c47,133 48,225 -64,315 -188,72 -301,14 -369,-86l-448 -802 148 -104 435 786c23,79 56,90 105,67 61,-40 39,-59 60,-138l-479 -786 148 -38 464 786z"/>
    <path class="fil1" d="M9504 4564c-20,-108 10,-252 167,-319 131,-111 225,-33 284,75l90 203 -129 34 -90 -146c-72,-30 -70,-38 -81,-75l-73 21c6,63 -34,37 -10,117l45 87c66,20 131,62 238,127 139,16 259,91 277,145l74 172c64,76 -4,188 -162,293 -109,99 -231,15 -251,-130l-128 -165 211 -9 46 83c-4,80 82,88 99,63 17,-34 8,-46 -26,-88l-26 -158c-49,-22 -105,-46 -250,-112 -101,21 -200,-51 -260,-105l-45 -113z"/>
    <polygon class="fil1" points="10656,4887 10779,4769 10923,4956 10939,5170 10802,5221 10767,5034 10749,5069 "/>
    <polygon class="fil1" points="11487,3565 11869,3428 11906,3665 11673,3703 11764,3963 11987,3923 12030,4096 11807,4134 11897,4588 11748,4687 "/>
    <path class="fil1" d="M12856 4064l122 416 -138 -25 -89 -211 -153 -19 27 234 -241 52 67 -415 -13 -698 188 -43 231 709zm-165 7l0 0 -140 -476 7 471 133 5z"/>
    <path class="fil1" d="M13259 3523c16,-170 89,-268 182,-296 187,-28 256,87 284,257l22 118 -171 5 -33 -127c-21,-54 0,-53 -51,-79l-17 2c-13,27 -35,-12 -41,42l-11 164c33,31 49,98 132,153 165,102 179,195 206,280l10 99c-10,225 -84,292 -259,276 -105,16 -256,-105 -246,-193l-22 -209 171 4 22 127c-5,54 61,147 124,76 7,15 73,12 40,-42l14 -164c-48,-8 -61,-50 -226,-125 -79,-102 -141,-198 -130,-333l0 -36z"/>
    <polygon class="fil1" points="14621,3277 14612,3422 14466,3402 14416,4365 14254,4422 14307,3459 14120,3407 14135,3237 "/>
    <path class="fil1" d="M15858 3968l19 -112 173 16 -19 109 91 42 -60 140 -71 -42 -91 287c4,140 -100,202 -263,148 -143,-36 -192,-146 -189,-288l30 -155c36,-47 98,-103 158,-168 -76,-12 -106,-82 -46,-141l9 -189c53,-152 134,-225 286,-184 154,48 226,169 178,321l-11 13 -173 -13 6 -95c12,-56 -1,-59 -41,-48 -27,14 -68,-35 -70,18l-58 201c19,54 11,97 43,50 28,31 31,53 50,68l49 20zm-193 471l0 0c60,2 63,-47 112,-126l42 -205 -49 -20c-34,-30 -45,-59 -34,-12 -48,7 -45,40 -82,50l-30 176c-32,54 -15,89 41,138z"/>
    <path class="fil1" d="M17105 4034c82,-161 175,-168 319,-135 180,58 204,196 122,336l-29 159 -172 -77 92 -178c-18,-45 -30,-81 -76,-113l5 26c-24,29 -66,-33 -104,61l1 131c-23,33 5,78 71,178 57,89 69,197 8,286l-8 173c-97,94 -189,188 -340,118 -144,-88 -183,-132 -101,-341l43 -134 154 98 -39 156c-38,56 -24,16 21,81 60,25 67,39 105,-18l26 -185c6,-42 -7,-114 -73,-214 -66,-89 -75,-200 -33,-334l9 -76z"/>
    <path class="fil1" d="M18164 5097l-136 399 -168 -115 123 -193 -199 -100 -118 219 -132 -65 225 -331 427 -613 181 88 -203 710zm-168 -115l0 0 176 -418 -265 360 89 58z"/>
    <polygon class="fil1" points="19269,4866 19186,5040 19057,4985 18530,5733 18398,5692 18925,4862 18764,4754 18848,4671 "/>
    <polygon class="fil1" points="19589,5133 19724,5200 19039,6141 18897,6074 "/>
    <path class="fil1" d="M19975 5658c65,-77 183,-72 312,63 94,59 112,146 5,267l-71 125 -125 -130 71 -43c54,-98 53,-91 34,-147l-5 14c-56,-39 -70,-3 -96,-18l-74 56c-32,49 -53,141 -47,321 69,48 29,171 -30,242l-100 98c-136,126 -219,166 -340,75 -129,-109 -133,-246 -19,-404l113 -60 125 65 -120 125c-26,45 -11,65 -6,159 68,6 95,-24 122,-8l75 -116c66,-29 54,-136 -1,-234 -20,-174 1,-288 112,-304l65 -145z"/>
    <polygon class="fil1" points="20796,6191 21086,6494 20975,6560 20753,6393 20528,6622 20672,6828 20575,6868 20430,6744 20052,7083 19934,6991 "/>
    <polygon class="fil1" points="21444,6913 21149,7296 21597,7124 21667,7240 21060,7458 21046,7453 20630,7757 20564,7652 20939,7391 20947,7377 21324,6751 "/>
    <polygon class="fil1" points="21931,7570 22003,7732 21048,8371 20969,8208 "/>
    <polygon class="fil1" points="22257,8149 22347,8257 21796,8721 22387,8434 22486,8587 21479,9118 21389,8928 21866,8516 21326,8846 21262,8642 "/>
    <path class="fil1" d="M22011 9795c-141,15 -235,6 -341,-123 -13,-158 20,-229 140,-331l671 -284c147,-59 247,-9 325,149 27,132 16,246 -174,343l-108 64 -81 -180 171 -20c40,-74 55,-81 26,-139l13 -35c-35,-41 -80,-43 -133,-24l-629 263c-46,80 -48,86 -40,139 10,27 67,-3 74,-1l245 -114 -20 -13 174 -56 60 231 -374 132z"/>
   </g>
   <path class="fil2" d="M4859 21227c188,-15 347,-75 524,-75 27,0 50,0 77,3l276 -1406 716 0 -765 3597 -716 0 404 -1770c-159,-62 -224,-68 -355,-68 -42,0 -166,5 -254,10l-361 1827 -716 0 755 -3255c-438,172 -697,527 -697,1051 0,257 27,270 66,293 -304,0 -507,-106 -507,-452 0,-628 877,-1240 1665,-1240 93,0 146,3 191,5l-303 1479z"/>
   <path class="fil2" d="M7225 23000c261,0 696,-275 827,-625l231 0c-245,509 -777,971 -1361,971 -450,0 -708,-348 -708,-779 0,-612 254,-1644 1174,-1644 357,0 545,142 545,481 0,558 -618,898 -1073,978 -34,83 9,163 9,187 0,337 235,431 357,431zm296 -1845l0 0c-288,0 -476,551 -596,978 458,-3 769,-366 726,-716 0,-96 -31,-262 -130,-262z"/>
   <path class="fil2" d="M10257 20933l-377 1631c4,70 8,98 8,163 0,98 18,181 275,181 187,0 445,-270 607,-436l129 0c-188,244 -765,872 -1131,872 -312,0 -503,-104 -557,-356 -181,182 -330,371 -693,371 -450,0 -553,-293 -553,-612 0,-812 276,-1788 1243,-1788 111,0 223,26 308,106l26 -134 716 0zm-1638 1697l0 0c0,279 134,357 284,357 116,0 231,-98 273,-234 39,-38 35,-122 70,-189l206 -1246c-7,-85 -130,-88 -223,-88 -330,0 -610,750 -610,1400z"/>
   <path class="fil2" d="M11736 19966l-574 2598c-35,80 -31,137 -31,166 0,103 19,179 262,179 162,0 419,-270 619,-436l173 0c-270,244 -765,872 -1131,872 -370,0 -597,-171 -597,-524 0,-80 -4,-166 -12,-257l581 -2474 708 -125z"/>
   <path class="fil2" d="M13053 20182c0,0 -50,342 -188,751l339 0 -66 212 -280 0c-304,1495 -347,1570 -347,1583 0,105 18,181 262,181 200,0 458,-270 619,-436l129 0c-188,244 -765,872 -1131,872 -336,0 -553,-171 -553,-524 0,-262 258,-1253 304,-1677l-134 0 22 -212 134 0 164 -658 725 -93z"/>
   <path class="fil2" d="M15184 22564c-8,66 -13,150 -13,166 0,103 28,179 205,179 187,0 446,-270 674,-436l122 0c-195,244 -779,872 -1139,872 -361,0 -556,-171 -556,-524 0,-83 -2,-166 8,-257l181 -825c5,-65 8,-137 8,-151 0,-176 -91,-270 -195,-270 -153,0 -241,11 -334,89l-426 1938 -634 0 673 -3255 716 -125 -257 1254c182,-158 410,-287 620,-287 257,0 540,300 540,632 0,21 0,83 -5,104l-189 895z"/>
   <path class="fil2" d="M16771 20933l-381 1631c-1,70 -6,98 -6,166 0,103 70,179 205,179 143,0 247,-88 405,-208l361 -1768 701 0 -600 2827c-119,646 -542,800 -880,800 -275,0 -547,-236 -547,-522 0,-441 361,-600 807,-755l88 -296c-214,182 -449,358 -636,358 -361,0 -605,-171 -605,-524 0,-83 5,-166 8,-257l347 -1631 732 0zm-296 3196l0 0c93,0 246,-91 277,-361l73 -319c-329,138 -529,247 -529,511 0,78 88,169 179,169z"/>
   <path class="fil1" d="M19889 20187l-200 1059 18 0c423,0 693,-431 693,-794 0,-262 -166,-495 -527,-495 -786,0 -1308,467 -1308,1185 0,257 75,270 78,293 -345,0 -519,-106 -519,-452 0,-628 877,-1240 1698,-1240 731,0 1092,361 1092,781 0,270 -169,597 -494,776 364,34 532,379 532,740 0,651 -409,1382 -916,1382 -328,0 -597,-7 -597,-336 0,-86 10,-174 82,-280 84,114 255,176 333,176 218,0 457,-484 457,-885 0,-327 -148,-602 -436,-602 -54,0 -166,3 -254,8l-371 1843 -698 0 636 -3063 701 -95z"/>
   <path class="fil1" d="M22115 23000c203,0 621,-275 794,-625l215 0c-288,509 -727,971 -1355,971 -471,0 -708,-348 -708,-779 0,-612 264,-1644 1137,-1644 371,0 615,142 615,481 0,558 -665,898 -1111,978 -5,83 -8,163 -8,187 0,337 187,431 420,431zm222 -1845l0 0c-281,0 -476,551 -572,978 439,-3 773,-366 727,-716 0,-96 -13,-262 -155,-262z"/>
   <path class="fil1" d="M22720 22567c0,-612 257,-1644 1137,-1644 371,0 615,142 615,481 0,558 -623,898 -1118,978 44,83 -8,163 -8,187 0,337 169,431 353,431 246,0 426,-111 615,-299 0,488 -433,644 -888,644 -453,0 -705,-348 -705,-779zm1305 -1412l0 0c-270,0 -514,551 -609,978 446,-3 731,-366 783,-716 0,-96 -62,-262 -174,-262z"/>
   <g>
    <g>
     <g>
      <path class="fil2" d="M11655 7219l1361 795c70,41 60,48 82,48 23,0 85,-75 70,-126 52,35 35,-52 4,-70l-1399 -795c-40,-25 -127,-43 -152,-4 -25,47 -35,162 34,152z"/>
      <path class="fil2" d="M13172 8293c-27,0 -36,16 -36,118l0 1317c0,109 9,126 36,126 109,0 118,-16 118,-126l0 -1317c0,-102 -9,-118 -118,-118z"/>
      <path class="fil2" d="M16103 7219l1389 795c14,41 35,48 82,48 6,0 69,-75 60,-126 33,35 8,-52 -36,-70l-1397 -795c-21,-25 -100,-43 -128,-4 -33,47 -8,162 29,152z"/>
      <path class="fil2" d="M17673 8293c-82,0 -140,16 -140,118l0 1317c0,109 58,126 140,126 33,0 91,-16 91,-126l0 -1317c0,-102 -58,-118 -91,-118z"/>
      <path class="fil2" d="M13168 15518c52,-32 35,-100 4,-128l-1399 -806c-40,-28 -127,-2 -152,78 -25,32 -35,100 34,128l1361 757c70,37 60,37 82,37 23,0 85,-35 70,-66z"/>
      <path class="fil2" d="M13172 15805c-27,0 -36,65 -36,91l0 1403c0,82 9,140 36,140 109,0 118,-58 118,-140l0 -1403c0,-27 -9,-91 -118,-91z"/>
      <path class="fil2" d="M17634 15518c33,-32 8,-100 -36,-128l-1397 -806c-21,-28 -100,-2 -128,78 -33,32 -8,100 29,128l1389 757c14,37 35,37 82,37 6,0 69,-35 60,-66z"/>
      <path class="fil2" d="M17673 15805c-82,0 -140,65 -140,91l0 1403c0,82 58,140 140,140 33,0 91,-58 91,-140l0 -1403c0,-27 -58,-91 -91,-91z"/>
      <path class="fil2" d="M19775 11718c57,-47 31,-52 -6,-159l-1403 -713c-70,-107 -100,-43 -128,4 -33,39 -8,113 30,152l1387 795c17,-41 37,-34 36,-34 28,0 69,7 85,-44z"/>
      <path class="fil2" d="M19789 11993c-33,0 -94,91 -94,118l0 1399c0,109 61,118 94,118 82,0 91,-9 91,-118l0 -1399c0,-27 -9,-118 -91,-118z"/>
      <path class="fil2" d="M11105 11718c-5,-47 13,-52 -26,-159l-1399 -713c-55,-107 -127,-43 -152,4 -17,39 -4,113 78,152l1317 795c77,-41 67,-34 82,-34 56,0 85,7 99,-44z"/>
      <path class="fil2" d="M11080 11993c-20,0 -36,91 -36,118l0 1399c0,109 16,118 36,118 85,0 126,-9 126,-118l0 -1399c0,-27 -40,-118 -126,-118z"/>
     </g>
     <path class="fil2" d="M20529 11183l-2079 -1193 0 -2353c0,-98 -52,-155 -91,-171l-2164 -1279c-88,0 -142,0 -231,0l-2042 1218 0 -18 -2057 -1200c-80,0 -187,0 -236,0l-2140 1279c-65,16 -118,73 -118,171l0 2353 -2081 1193c-65,83 -118,170 -118,186l0 2529c0,78 53,148 118,181l2081 1161 0 2448c0,48 53,137 118,181l2140 1248c66,2 40,1 118,1 64,0 37,1 118,-1l2057 -1203 0 -1 2042 1204c44,2 96,1 108,1 34,0 79,1 123,-1l2164 -1248c39,-44 91,-133 91,-181l0 -2448 2079 -1161c39,-33 91,-103 91,-181l0 -2529c0,-16 -52,-103 -91,-186zm-12952 2608l0 0 0 -2242 1963 -1150 2038 1150 0 2242 -2038 1134 -1963 -1134zm6126 3756l0 0 -1956 1163 -1971 -1163 0 -2271 1971 -1118 1956 1118 0 2271zm0 -7555l0 0 -1956 1142 -1971 -1142 0 -2227 1971 -1157 1956 1157 0 2227zm413 -2227l0 0 1956 -1157 1998 1157 0 2227 -1998 1142 -1956 -1142 0 -2227zm3954 9781l0 0 -1998 1163 -1956 -1163 0 -2271 1956 -1118 1998 1118 0 2271zm2150 -3756l0 0 -1953 1134 -1982 -1134 0 -2242 1982 -1150 1953 1150 0 2242z"/>
    </g>
   </g>
   <g>
    <g>
     <path class="fil1" d="M15880 12717c0,0 -503,-411 -1121,-25l-75 -192c0,0 152,-379 -105,-655 -28,-9 -38,-48 -59,-58 37,-42 40,-66 40,-89 0,-65 -53,-116 -162,-116 -8,0 -33,62 -57,19 -59,13 -142,-30 -198,-128 42,-135 97,-434 250,-746 120,-475 372,-414 367,-447 23,16 62,-17 38,-48 9,-31 -5,-48 -38,-46 -28,21 -321,-64 -489,482 -103,327 -194,647 -227,798 -101,-76 -123,-86 -123,-86 0,0 -78,10 -113,86 -101,-151 -165,-471 -261,-798 -203,-546 -475,-460 -491,-482 -31,-1 -90,15 -21,46 -38,31 1,63 73,48 -51,33 160,-28 290,447 152,312 252,610 256,746 -71,97 -145,141 -140,128 -94,43 -83,-19 -111,-19 -58,0 -157,51 -157,116 0,23 32,47 54,89 -58,10 -31,49 -59,58 -257,276 -59,655 -59,655l-146 192c-579,-386 -1096,25 -1096,25 -457,515 -575,1653 -575,1653 1244,67 1663,-305 1798,-390 196,447 629,940 629,940l130 664 87 -664c0,0 494,-493 693,-940 88,85 531,456 1728,390 0,0 -76,-1137 -550,-1653z"/>
    </g>
    <path class="fil3" d="M11904 13078c386,-698 982,-314 982,-314 -613,918 -1335,1377 -1335,1377 151,-680 353,-1063 353,-1063zm1037 872l0 0c34,-15 67,-101 169,-141 164,-278 139,-688 -76,-900 -591,902 -1245,1298 -1245,1298 235,30 482,-22 763,-99 140,-16 266,-57 388,-159z"/>
    <path class="fil3" d="M16221 14156c0,0 -683,-474 -1319,-1392 0,0 627,-383 1015,314 0,0 191,383 304,1078zm-190 52l0 0c0,0 -655,-398 -1262,-1303 -1,-11 -54,151 -69,110 -99,169 -106,262 -119,409 35,696 926,829 1450,784z"/>
    <g>
     <path class="fil4" d="M13922 12935c315,0 514,134 514,134 96,-170 196,-332 196,-332 -214,-414 -709,-422 -709,-422 0,0 -524,8 -731,422 0,0 97,163 188,332 0,0 210,-134 544,-134z"/>
    </g>
    <g>
     <path class="fil4" d="M13374 14141l380 446c0,0 28,-9 169,-9 126,0 173,9 173,9l351 -446c-209,-219 -524,-219 -524,-219 0,0 -334,0 -548,219z"/>
    </g>
    <g>
     <path class="fil4" d="M14551 12364c0,-642 -629,-811 -629,-811 0,0 -653,169 -653,811 0,0 288,-224 653,-224 372,0 629,224 629,224z"/>
    </g>
    <g>
     <path class="fil4" d="M14427 13349c-256,-72 -505,-58 -505,-58 0,0 -301,-14 -527,58 0,0 -5,212 -126,488 0,0 327,-190 653,-190 286,0 629,190 629,190 -121,-276 -124,-488 -124,-488z"/>
    </g>
   </g>
  </g>
 </g>
</svg>
